<svg xmlns="http://www.w3.org/2000/svg" width="476" height="346" viewBox="0 0 476 346">
  <g id="Group_32" data-name="Group 32" transform="translate(-468.151 -4247.821)">
    <path id="Rectangle_5" data-name="Rectangle 5" d="M47,0h0A47,47,0,0,1,94,47V346a0,0,0,0,1,0,0H0a0,0,0,0,1,0,0V47A47,47,0,0,1,47,0Z" transform="translate(659.151 4247.821)" fill="#fbd5ca"/>
    <g id="Palac_logo" transform="translate(468.151 4278.007)">
      <path id="Path_144" data-name="Path 144" d="M538.891,715.416c-.1.132-.2.294-.3.426a56.807,56.807,0,0,1-7.032,1.143c-1.659.129-3.3.212-4.962.278A96.126,96.126,0,0,0,538.891,715.416Z" transform="translate(-245.892 -527.185)" fill="none"/>
      <g id="Group_19" data-name="Group 19" transform="translate(0 126.725)">
        <path id="Path_145" data-name="Path 145" d="M380.312,690.106c-.008-.2-.023-.475-.033-.594-.33-4.2-2.075-8.682-5.984-8.682-2.547,0-5.455,2.275-5.986,8.656-.01.126-.025.407-.034.606-.209,0-.5.013-.618.021-4.26.287-8.814,2-8.814,5.957,0,3.994,4.578,5.7,8.86,5.964.11.007.386.011.595.013-.015.247-.033.555-.033.6.1,4.531,2.008,9.1,6.03,9.1,4.045,0,5.943-4.587,6.03-9.128,0-.049-.018-.351-.036-.591a4.9,4.9,0,0,0,.59.024h0c4.54-.126,9.121-2.026,9.121-5.988,0-3.922-4.558-5.831-9.075-5.983C380.862,690.088,380.547,690.093,380.312,690.106Z" transform="translate(-353.776 -675.801)" fill="none"/>
        <path id="Path_146" data-name="Path 146" d="M370.248,690.818a1.112,1.112,0,1,0-1.058-1.11A1.036,1.036,0,0,0,370.248,690.818Z" transform="translate(-347.122 -670.885)" fill="none"/>
        <path id="Path_147" data-name="Path 147" d="M367.779,696.056H366.3v-6.63h-1.093v-1.339h2.57Zm5.029.18a2.392,2.392,0,0,1-2.637-2.355,2.023,2.023,0,0,1,1.352-1.982,1.942,1.942,0,0,1-1.093-1.768,2.382,2.382,0,0,1,4.754,0,1.941,1.941,0,0,1-1.091,1.768,2.025,2.025,0,0,1,1.352,1.982A2.393,2.393,0,0,1,372.808,696.235Z" transform="translate(-349.682 -671.32)" fill="none"/>
        <path id="Path_148" data-name="Path 148" d="M370.288,690.74a1.245,1.245,0,1,0,1.16,1.241A1.166,1.166,0,0,0,370.288,690.74Z" transform="translate(-347.162 -669.528)" fill="none"/>
        <path id="Path_149" data-name="Path 149" d="M635.86,692.386v-3.145l-2.027,3.145Z" transform="translate(-176.933 -670.477)" fill="none"/>
        <path id="Path_150" data-name="Path 150" d="M630.613,696.361l-1.295-.606,3.618-6.515h-3.654v-1.386h6.058Zm10.531-3.1v1.287h-.92v1.561h-1.438v-1.561h-3.843v-.717l3.9-5.981h1.379v5.411Z" transform="translate(-179.859 -671.356)" fill="none"/>
        <path id="Path_151" data-name="Path 151" d="M365.209,689.356H366.3v6.63h1.477v-7.967h-2.569Z" transform="translate(-349.682 -671.251)" fill="#0b1036"/>
        <path id="Path_152" data-name="Path 152" d="M372.151,691.9a1.941,1.941,0,0,0,1.091-1.768,2.382,2.382,0,0,0-4.753,0,1.942,1.942,0,0,0,1.093,1.768,2.023,2.023,0,0,0-1.352,1.982,2.654,2.654,0,0,0,5.274,0A2.025,2.025,0,0,0,372.151,691.9Zm-1.285-2.866a1.112,1.112,0,1,1-1.058,1.11A1.035,1.035,0,0,1,370.866,689.033Zm0,5.983a1.245,1.245,0,1,1,1.16-1.243A1.167,1.167,0,0,1,370.866,695.016Z" transform="translate(-347.74 -671.32)" fill="#0b1036"/>
        <path id="Path_153" data-name="Path 153" d="M381.025,689.842l-.187,0-.013-.183c-.319-4.182-2.179-9.064-6.375-9.064-4.221,0-6.073,4.9-6.38,9.089l-.013.178-.181.011c-6.4.361-9.272,3.45-9.272,6.352,0,4.265,4.972,6.086,9.228,6.349l.191.013,0,.188c.08,4.587,2.128,9.523,6.425,9.523,4.274,0,6.324-4.923,6.419-9.5l0-.193.194-.007c4.566-.139,9.481-2.193,9.481-6.375C390.548,692,385.611,689.957,381.025,689.842Zm9.131,6.378c0,3.961-4.581,5.862-9.121,5.988h0a4.9,4.9,0,0,1-.59-.024c.018.24.038.542.036.591-.087,4.541-1.985,9.128-6.03,9.128-4.022,0-5.928-4.572-6.03-9.1,0-.047.018-.356.033-.6-.209,0-.485-.007-.595-.013-4.282-.265-8.86-1.969-8.86-5.964,0-3.953,4.553-5.67,8.814-5.957.117-.008.409-.018.618-.021.01-.2.025-.48.034-.606.531-6.382,3.439-8.656,5.986-8.656,3.909,0,5.654,4.484,5.984,8.682.01.119.025.394.033.594.235-.013.55-.018.615-.02C385.6,690.389,390.155,692.3,390.155,696.22Z" transform="translate(-353.93 -675.953)" fill="#dad8d0"/>
        <path id="Path_154" data-name="Path 154" d="M386.738,687.472a10.527,10.527,0,0,0-21,.033,10.461,10.461,0,0,0-.058,20.9,10.558,10.558,0,0,0,21.11.033,10.484,10.484,0,0,0-.057-20.964Zm0,19.95c-.089,0-.772-.029-1.03-.051.025.284.069.965.067,1.025a9.533,9.533,0,0,1-19.06.033c0-.072.036-.753.061-1.026-.15.007-.828,0-1.024-.015a9.443,9.443,0,0,1-.058-18.859c.215-.015.894-.031,1.022-.026,0-.083.033-.756.054-1.014a9.5,9.5,0,0,1,18.947.033c.02.246.049.919.048,1.014.238-.018.922-.042,1.03-.039a9.464,9.464,0,0,1-.058,18.924Z" transform="translate(-355.759 -677.75)" fill="#dad8d0"/>
        <path id="Path_155" data-name="Path 155" d="M645.405,689.837l-.015-.183c-.317-4.182-2.179-9.064-6.375-9.064-4.22,0-6.073,4.9-6.38,9.089l-.012.178-.182.011c-6.4.361-9.27,3.45-9.27,6.352,0,4.265,4.97,6.086,9.228,6.349l.189.013,0,.188c.082,4.587,2.128,9.523,6.425,9.523,4.275,0,6.326-4.923,6.419-9.5l0-.193.2-.007c4.566-.139,9.479-2.193,9.479-6.375,0-4.219-4.938-6.264-9.523-6.378Zm9.318,6.383c0,3.961-4.581,5.862-9.122,5.988h0a4.944,4.944,0,0,1-.588-.024c.016.24.036.542.034.591-.087,4.541-1.985,9.128-6.03,9.128-4.022,0-5.927-4.572-6.03-9.1,0-.052.016-.363.033-.6-.207,0-.485-.007-.595-.013-4.282-.265-8.86-1.969-8.86-5.964,0-3.953,4.553-5.67,8.814-5.957.117-.008.409-.018.618-.021.01-.2.026-.48.036-.606.526-6.382,3.436-8.656,5.984-8.656,3.909,0,5.655,4.484,5.986,8.682.01.119.023.394.031.594.235-.013.545-.018.614-.02C650.164,690.389,654.723,692.3,654.723,696.22Z" transform="translate(-183.789 -675.953)" fill="#dad8d0"/>
        <path id="Path_156" data-name="Path 156" d="M651.3,687.472a10.527,10.527,0,0,0-21,.033,10.461,10.461,0,0,0-.057,20.9,10.558,10.558,0,0,0,21.11.033,10.484,10.484,0,0,0-.058-20.964Zm0,19.95c-.089,0-.772-.029-1.03-.051.026.284.069.965.067,1.025a9.533,9.533,0,0,1-19.06.033c0-.072.038-.753.061-1.026-.148.007-.826,0-1.024-.015a9.443,9.443,0,0,1-.057-18.859c.217-.015.894-.031,1.024-.026,0-.083.033-.756.054-1.014a9.5,9.5,0,0,1,18.946.033c.02.246.049.919.046,1.014.24-.018.922-.042,1.03-.039a9.464,9.464,0,0,1-.057,18.924Z" transform="translate(-185.618 -677.75)" fill="#dad8d0"/>
        <path id="Path_157" data-name="Path 157" d="M629.283,687.853v1.387h3.653l-3.618,6.514,1.3.606,4.727-8.507Z" transform="translate(-179.859 -671.355)" fill="#0b1036"/>
        <path id="Path_158" data-name="Path 158" d="M638.008,687.853h-1.379l-3.9,5.981v.717h3.843v1.561h1.438v-1.561h.92v-1.287h-.92Zm-1.438,5.411h-2.028l2.028-3.145Z" transform="translate(-177.644 -671.356)" fill="#0b1036"/>
      </g>
      <g id="Group_20" data-name="Group 20" transform="translate(149.127 73.453)">
        <path id="Path_165" data-name="Path 165" d="M458.824,660.395c5.3,0,9.336-3.018,9.336-7.884,0-3.9-3.165-7.128-8.307-7.128H446.519v.251h2.967v28.013h-2.967v.251h11.907v-.251h-3.519V660.395Zm-3.917-14.76h4.946c1.819,0,2.491.629,2.491,1.133v12.116c0,.545-1.344,1.259-3.52,1.259h-3.917Z" transform="translate(-446.519 -644.964)" fill="#0b1036"/>
        <path id="Path_166" data-name="Path 166" d="M460.608,656.591c0,.88.118,1.006.83,1.006h3.285v-4.822a9.531,9.531,0,0,1,2.769-.336c1.149,0,1.464.085,1.464,1.048v6.458c-1.86.377-3.838.838-5.342,1.257-2.414.671-4.668,2.1-4.668,4.866,0,2.557,1.86,3.983,4.63,4.024a13.955,13.955,0,0,0,5.379-1.257v.756h6.607v-.251h-2.056V656.381c0-2.766-2.455-4.192-6.015-4.192C464.009,652.189,460.608,653.57,460.608,656.591Zm8.347,11.95a13.048,13.048,0,0,1-4.55,1.176c-.278,0-.355-.085-.355-.5v-7c0-.629.077-.838.434-.965,1.149-.292,2.729-.671,4.471-1.048Z" transform="translate(-438.528 -640.656)" fill="#0b1036"/>
        <path id="Path_167" data-name="Path 167" d="M472.153,673.809h-2.216v.252h8.941v-.252H476.7V658.252l2.453-1.258v-.965l-2.453,1.258V645.126l-3.124.419h-3.641v.252h2.216v13.88l-2.492,1.3v.965l2.492-1.3Z" transform="translate(-431.637 -645.126)" fill="#0b1036"/>
        <path id="Path_168" data-name="Path 168" d="M481.177,670.093a13.957,13.957,0,0,0,5.381-1.257v.756h6.607v-.251h-2.057V656.381c0-2.766-2.453-4.192-6.014-4.192-3.482,0-6.884,1.381-6.884,4.4,0,.88.12,1.006.83,1.006h3.285v-4.822a9.542,9.542,0,0,1,2.77-.336c1.147,0,1.464.085,1.464,1.048v6.458c-1.86.377-3.838.838-5.342,1.257-2.414.671-4.668,2.1-4.668,4.866C476.548,668.626,478.408,670.052,481.177,670.093Zm.475-7.882c0-.629.079-.838.435-.965,1.147-.292,2.729-.671,4.471-1.048v8.344a13.057,13.057,0,0,1-4.55,1.176c-.278,0-.357-.085-.357-.5Z" transform="translate(-427.208 -640.656)" fill="#0b1036"/>
        <path id="Path_169" data-name="Path 169" d="M501.657,657.614c.672,0,.828-.126.828-.88,0-2.391-2.373-4.572-6.211-4.572-5.064,0-8.506,3.9-8.506,9.1,0,5.451,3.917,9.141,8.073,9.141,2.493,0,5.539-1.466,6.567-5.7l-.238-.085c-1.029,4.112-3.955,5.537-6.329,5.537-1.582,0-2.967-.756-2.967-1.551V653.924c0-.8,1.344-1.509,3.4-1.509a7.854,7.854,0,0,1,2.1.292v4.907Z" transform="translate(-419.992 -640.673)" fill="#0b1036"/>
        <path id="Path_170" data-name="Path 170" d="M523.981,666.518c0-4.11-2.77-6.458-7.162-7.214v-.209c3.442-.712,5.974-2.894,5.974-6.751,0-4.069-3.245-6.961-7.675-6.961H501.9v.251h2.967v28.013H501.9v.251h12.463C520.854,673.9,523.981,671,523.981,666.518Zm-13.689-20.884h4.826c1.464,0,2.335.545,2.335,1.048v11.406c0,.46-1.466,1.006-2.613,1.006h-4.548Zm7.872,26.88c0,.588-1.3,1.133-3.8,1.133h-4.075v-14.3h4.548c1.7,0,3.324.712,3.324,1.215Z" transform="translate(-410.902 -644.964)" fill="#0b1036"/>
        <path id="Path_171" data-name="Path 171" d="M520.827,652.659h-3.679v.253h2.213v16.4h-2.213v.251H526.8v-.251h-2.889V654.63c1.9-1.257,2.65-1.677,3.876-1.886v4.737h3.284c.751,0,.83-.375.83-1.634a3.313,3.313,0,0,0-3.441-3.439c-1.068,0-2.177.211-4.55,1.845v-2.013Z" transform="translate(-401.098 -640.624)" fill="#0b1036"/>
        <path id="Path_172" data-name="Path 172" d="M543.325,669.591v-.251h-2.057V656.381c0-2.766-2.453-4.192-6.014-4.192-3.483,0-6.885,1.381-6.885,4.4,0,.88.118,1.006.83,1.006h3.285v-4.822a9.542,9.542,0,0,1,2.77-.336c1.147,0,1.462.085,1.462,1.048v6.458c-1.86.377-3.838.838-5.342,1.257-2.414.671-4.668,2.1-4.668,4.866,0,2.557,1.86,3.983,4.63,4.024a13.949,13.949,0,0,0,5.379-1.257v.756Zm-11.157.126c-.278,0-.357-.085-.357-.5v-7c0-.629.079-.838.434-.965,1.148-.292,2.731-.671,4.471-1.048v8.344A13.049,13.049,0,0,1,532.169,669.717Z" transform="translate(-394.951 -640.656)" fill="#0b1036"/>
        <path id="Path_173" data-name="Path 173" d="M546,670.4c2.494,0,5.539-1.466,6.567-5.7l-.237-.085c-1.029,4.112-3.955,5.537-6.331,5.537-1.582,0-2.966-.756-2.966-1.551V653.924c0-.8,1.344-1.509,3.4-1.509a7.843,7.843,0,0,1,2.1.292v4.907h3.285c.672,0,.831-.126.831-.88,0-2.391-2.374-4.572-6.212-4.572-5.064,0-8.506,3.9-8.506,9.1C537.928,666.713,541.845,670.4,546,670.4Z" transform="translate(-387.735 -640.673)" fill="#0b1036"/>
        <path id="Path_174" data-name="Path 174" d="M548.139,669.307v.252h9.138v-.252H554.9V652.239l-3.126.419h-3.639v.252h2.216v16.4Z" transform="translate(-381.168 -640.624)" fill="#0b1036"/>
        <path id="Path_175" data-name="Path 175" d="M551.778,646.744a2.639,2.639,0,0,0-2.652,2.641,2.666,2.666,0,0,0,2.652,2.644,2.632,2.632,0,0,0,2.609-2.644A2.605,2.605,0,0,0,551.778,646.744Z" transform="translate(-380.534 -644.102)" fill="#0b1036"/>
      </g>
      <path id="Path_176" data-name="Path 176" d="M472.483,697.317l-1.638,5.322-4.217,4.03h-1.306v.378h12.057v-.378h-1.959l-4.157-3.966,1.669-5.418Z" transform="translate(-285.3 -538.661)" fill="#0b1036"/>
      <g id="Group_21" data-name="Group 21" transform="translate(334.366 185.088)">
        <path id="Path_177" data-name="Path 177" d="M563.447,713.566h-1.274l-1.9,2.306v-2.306h-1.011v5.452h1.011V716.7l.115-.123,1.842,2.445h1.338l-2.309-2.934Z" transform="translate(-559.257 -713.444)" fill="#0b1036"/>
        <path id="Path_178" data-name="Path 178" d="M565.744,716.99a1.232,1.232,0,0,1-.248.808,1.089,1.089,0,0,1-1.648,0,1.223,1.223,0,0,1-.248-.808v-3.424h-1.012V716.9a2.389,2.389,0,0,0,.389,1.455,2.22,2.22,0,0,0,3.388,0,2.377,2.377,0,0,0,.389-1.455v-3.334h-1.01Z" transform="translate(-557.116 -713.444)" fill="#0b1036"/>
        <path id="Path_179" data-name="Path 179" d="M570.172,717.2l-3.156-3.637h-.7v5.452h1.011v-3.645l3.155,3.645h.7v-5.452h-1.009Z" transform="translate(-554.718 -713.444)" fill="#0b1036"/>
        <rect id="Rectangle_2" data-name="Rectangle 2" width="1.011" height="5.452" transform="translate(18.422 0.122)" fill="#0b1036"/>
        <path id="Path_180" data-name="Path 180" d="M572.955,714.211a2.923,2.923,0,0,0-.83,2.133,2.786,2.786,0,0,0,.83,2.084,2.494,2.494,0,0,0,1.9.761,2.59,2.59,0,0,0,1.283-.32v-1.241a1.542,1.542,0,0,1-1.213.6,1.761,1.761,0,0,1-1.758-1.865,1.787,1.787,0,0,1,1.719-1.9,1.636,1.636,0,0,1,1.252.614v-1.241a2.5,2.5,0,0,0-1.275-.336A2.578,2.578,0,0,0,572.955,714.211Z" transform="translate(-550.982 -713.491)" fill="#0b1036"/>
        <path id="Path_181" data-name="Path 181" d="M579.8,713.566h-1.274l-1.9,2.306v-2.306h-1.011v5.452h1.011V716.7l.115-.123,1.842,2.445h1.338l-2.309-2.934Z" transform="translate(-548.743 -713.444)" fill="#0b1036"/>
        <rect id="Rectangle_3" data-name="Rectangle 3" width="1.011" height="5.452" transform="translate(32.584 0.122)" fill="#0b1036"/>
        <path id="Path_182" data-name="Path 182" d="M580.9,719.018h2.875V718.1h-1.865v-1.488h1.787V715.7h-1.787v-1.218h1.865v-.915H580.9Z" transform="translate(-545.342 -713.444)" fill="#0b1036"/>
        <path id="Path_183" data-name="Path 183" d="M586.438,717.062h1.336a1.462,1.462,0,0,1-.488.835,1.683,1.683,0,0,1-1.019.326,1.565,1.565,0,0,1-1.15-.465,1.9,1.9,0,0,1-.513-1.381,2.086,2.086,0,0,1,.521-1.439,1.709,1.709,0,0,1,1.2-.483,1.615,1.615,0,0,1,.73.173,1.436,1.436,0,0,1,.606.645l.877-.5a2.51,2.51,0,0,0-.969-1,2.42,2.42,0,0,0-1.2-.286,2.7,2.7,0,0,0-2.044.833,2.85,2.85,0,0,0-.762,2.027,2.99,2.99,0,0,0,.771,2.1,2.742,2.742,0,0,0,3.722.016,3.393,3.393,0,0,0,.762-2.257v-.065h-2.379Z" transform="translate(-543.627 -713.491)" fill="#0b1036"/>
        <path id="Path_184" data-name="Path 184" d="M590.418,713.491a2.85,2.85,0,1,0,2.767,2.852A2.7,2.7,0,0,0,590.418,713.491Zm0,4.732a1.892,1.892,0,1,1,1.725-1.88A1.734,1.734,0,0,1,590.418,718.223Z" transform="translate(-540.998 -713.491)" fill="#0b1036"/>
      </g>
      <g id="Group_22" data-name="Group 22" transform="translate(87.81 185.088)">
        <path id="Path_185" data-name="Path 185" d="M414.455,717.3l-1.2-3.759H412.7l-1.267,3.759-1.159-3.709H409.2l1.8,5.451h.761l1.189-3.457,1.135,3.457h.761l1.92-5.451H415.7Z" transform="translate(-409.201 -713.462)" fill="#0b1036"/>
        <path id="Path_186" data-name="Path 186" d="M415.923,716.23l.793-.531v-.816l-.793.531v-1.847h-1.011v2.362l-.668.45v.816l.668-.45v2.272h2.611V718.1h-1.6Z" transform="translate(-405.958 -713.443)" fill="#0b1036"/>
        <path id="Path_187" data-name="Path 187" d="M419.119,713.567l-2.231,5.451h1.1l.46-1.145h2.09l.458,1.145h1.089l-2.169-5.451Zm-.357,3.439.738-1.961.738,1.961Z" transform="translate(-404.257 -713.443)" fill="#0b1036"/>
        <path id="Path_188" data-name="Path 188" d="M422.244,713.567H420.89v5.451h1.337a2.859,2.859,0,0,0,1.9-.524,2.642,2.642,0,0,0,1.042-2.2,2.748,2.748,0,0,0-1-2.2A2.9,2.9,0,0,0,422.244,713.567Zm1.236,4.175a2.091,2.091,0,0,1-1.267.359H421.9v-3.62h.311a2.028,2.028,0,0,1,1.273.359,1.855,1.855,0,0,1,.638,1.455A1.808,1.808,0,0,1,423.48,717.743Z" transform="translate(-401.684 -713.443)" fill="#0b1036"/>
        <path id="Path_189" data-name="Path 189" d="M426.227,715.463l-1.111-1.9h-1.2l1.78,2.958v2.492h1.01v-2.492l1.827-2.958h-1.2Z" transform="translate(-399.736 -713.443)" fill="#0b1036"/>
        <path id="Path_190" data-name="Path 190" d="M429.3,715.707a1.684,1.684,0,0,1-.621-.312.466.466,0,0,1-.163-.367.633.633,0,0,1,.715-.637.994.994,0,0,1,.846.465l.529-.727a1.941,1.941,0,0,0-1.469-.638,1.545,1.545,0,0,0-1.664,1.6,1.3,1.3,0,0,0,.412,1.014,2.462,2.462,0,0,0,.863.474,2.289,2.289,0,0,1,.8.4.659.659,0,0,1,.2.492.742.742,0,0,1-.8.751,1.211,1.211,0,0,1-1.088-.727l-.661.661a2.112,2.112,0,0,0,1.788,1.03,1.708,1.708,0,0,0,1.8-1.79,1.524,1.524,0,0,0-.442-1.145A2.968,2.968,0,0,0,429.3,715.707Z" transform="translate(-397.622 -713.491)" fill="#0b1036"/>
        <path id="Path_191" data-name="Path 191" d="M431.677,716.23l.793-.531v-.816l-.793.531v-1.847h-1.011v2.362l-.668.45v.816l.668-.45v2.272h2.612V718.1h-1.6Z" transform="translate(-395.827 -713.443)" fill="#0b1036"/>
        <path id="Path_192" data-name="Path 192" d="M434.872,713.567l-2.231,5.451h1.1l.46-1.145h2.09l.458,1.145h1.089l-2.169-5.451Zm-.358,3.439.739-1.961.738,1.961Z" transform="translate(-394.127 -713.443)" fill="#0b1036"/>
        <path id="Path_193" data-name="Path 193" d="M441.75,719.036l1.92-5.451H442.6l-1.244,3.709-1.2-3.759H439.6l-1.267,3.759-1.158-3.709H436.1l1.8,5.451h.761l1.189-3.457,1.135,3.457Z" transform="translate(-391.902 -713.462)" fill="#0b1036"/>
        <path id="Path_194" data-name="Path 194" d="M441,719.018h1.1l.458-1.145h2.09l.458,1.145h1.089l-2.169-5.451h-.792Zm3.35-2.012h-1.477l.738-1.961Z" transform="translate(-388.751 -713.443)" fill="#0b1036"/>
      </g>
      <path id="Path_198" data-name="Path 198" d="M504.172,700.583a59.113,59.113,0,0,1-11.239,15.84l-2.2-2.074V678.9Z" transform="translate(-268.96 -550.299)" fill="none"/>
      <path id="Path_199" data-name="Path 199" d="M408.782,677.043H389.241v.379H393.7V719.48h-4.456v.379h19.541c11.166,0,17.819-10.578,17.819-21.408S420.067,677.043,408.782,677.043Zm8.376,38.029c0,1.951-3.5,4.407-8.376,4.407h-6.949V677.422h6.949c4.872,0,8.376,2.454,8.376,4.407Z" transform="translate(-334.227 -551.472)" fill="#0b1036"/>
      <path id="Path_200" data-name="Path 200" d="M433.3,721.517c11.107,0,18.473-11.207,18.473-22.6s-7.366-22.6-18.473-22.6-18.47,11.207-18.47,22.6S422.194,721.517,433.3,721.517Zm-9.145-39.729c0-1.7,3.386-5.1,9.145-5.1s9.149,3.4,9.149,5.1v34.378c0,1.574-3.386,4.976-9.149,4.976s-9.145-3.4-9.145-4.976Z" transform="translate(-317.771 -551.936)" fill="#0b1036"/>
      <path id="Path_201" data-name="Path 201" d="M449.579,719.48h-1.186l-4.218-4.469v-34.38h.3L457.3,719.858h.475l11.582-39.228h.3V719.48h-4.573v.379h17.165v-.379h-4.454V677.422h4.454v-.379h-12.3l-8.613,29.09H461.1l-8.493-27.7c-.416-1.325-.534-1.386-1.543-1.386H438.828v.379h3.5c.713,0,.891.062,1.01.944l.357,1.51V715.01l-3.741,4.469h-1.13v.379h10.751Z" transform="translate(-302.338 -551.472)" fill="#0b1036"/>
      <g id="Group_23" data-name="Group 23" transform="translate(229.188 112.963)">
        <path id="Path_202" data-name="Path 202" d="M602.054,671.148a3.567,3.567,0,0,0-1.807-1.551c-2.054-.8-4.831.278-6.457,1.584a95.008,95.008,0,0,0-11.452,10.761h-8.051v.376h2.383l2.251,3.347c-1.725,1.91-3.45,3.821-5.192,5.7-.477.523-.969,1.045-1.462,1.584-.3.31-.592.637-.9.963-1.906,2.058-3.927,4.262-6.03,6.515-.3.327-.608.653-.9.98V682.317h4.634v-.376h-17.22v.376h4.453v27.907c-.707.751-1.4,1.519-2.1,2.27-6.638,7.217-13.276,14.386-18.731,20.216-5.225,5.111-10.779,10.206-17.335,13.586-4.289-.049-8.577-.065-12.9.065a19.644,19.644,0,0,0-8.593,2.074,3.336,3.336,0,0,0-1.282,1.29c-.509,1.747.871,2.5,2.58,2.809a19.933,19.933,0,0,0,4.19.147,43.032,43.032,0,0,0,17.335-5.356c9.415-.114,18.5-.278,27.308-.882a64.028,64.028,0,0,0,12.29-1.845c-.1.131-.2.294-.3.425-.017.033-.033.049-.033.065-6.934,10.418-16.694,24.8-23.874,34.847l7.476-1.519c.049-.1.1-.18.148-.261q9.588-17.244,19.4-34.259c.46-.131.887-.245,1.331-.376a62.5,62.5,0,0,0,27.818-16.64l-.608-.539a64.348,64.348,0,0,1-27.078,16.95c-.46.147-.9.31-1.364.457.854-1.486,1.692-2.988,2.547-4.458,3.171-5.405,6.917-11.9,10.729-18.452.115-.18.214-.375.329-.555,1.594-2.727,3.2-5.47,4.781-8.116l-.016-.033.247-.392h.016c.1-.18.214-.376.329-.555,2.267-3.8,4.453-7.43,6.457-10.6.591-.947,1.331-2.057,2.185-3.347,1.364-2.09,3.089-4.7,5.159-8.034l.016-.016c.082-.147.164-.294.263-.441,1.232-2.009,2.58-4.262,4.059-6.809v-.016c.1-.147.181-.278.263-.424.033-.049.049-.114.082-.163C600.986,678.349,603.73,674.724,602.054,671.148Zm-86.87,76.536a44.815,44.815,0,0,1-7.69,2.6c-2.81.49-6.063,1.274-8.938.751a8,8,0,0,1-1.627-.441.545.545,0,0,1-.181-.18c.016-.2.345-.49.723-.719,2.3-1.323,5.176-1.666,7.838-1.894,3.566-.212,7.065-.327,10.549-.408C515.628,747.487,515.414,747.585,515.184,747.683Zm81.908-67.342c-.263.523-.542,1.061-.822,1.6h-5.7v.376h4.453v2.057c-2.727,5.291-5.471,10.6-8.33,15.823-2.2,3.8-4.436,7.577-6.687,11.349L572.265,698.4l-.488-.808q-3.049,3.15-6.014,6.35l0,0,9.362,15.573q-7.813,12.639-16.02,25a58.435,58.435,0,0,1-8.363,1.4c-7.558.572-15.149.522-22.724.474l-5.439-.049c-.46-.016-.9-.016-1.347-.016a65.634,65.634,0,0,0,7.049-4.768,101.2,101.2,0,0,0,16.07-16.035q4.855-5.682,9.842-11.284c.69-.8,1.4-1.6,2.1-2.384q4.017-4.507,8.133-8.932c.3-.326.608-.637.9-.963,1.347-1.421,2.678-2.858,4.025-4.262.657-.686,1.315-1.355,2-2.041.279-.31.575-.62.9-.931.937-.98,1.89-1.943,2.842-2.907,2.53-2.547,5.11-5.046,7.706-7.511.707-.653,1.4-1.339,2.1-1.992q3.031-2.817,6.129-5.536c4.108-3.739,7.246-5.421,8.331-4.507C600.263,673.042,599.738,675.606,597.092,680.341Z" transform="translate(-495.245 -669.322)" fill="#0b1036"/>
        <path id="Path_203" data-name="Path 203" d="M538.143,690.514l.023.011-.029-.023Z" transform="translate(-467.662 -655.916)" fill="#0b1036"/>
      </g>
      <path id="Path_204" data-name="Path 204" d="M595.813,714.466a13.635,13.635,0,0,1-11.88,6.675c-5.641,0-9.027-3.463-9.027-4.912V681.662c0-1.448,3.446-4.974,8.552-4.974a14.136,14.136,0,0,1,7.425,2.141h-.12l5.467,10.64h.414l-.237-11.963h-.476l-4.454,1.261a14.073,14.073,0,0,0-8.018-2.456c-10.335,0-17.878,11.207-17.878,22.6s7.366,22.6,18.353,22.6c6.06,0,10.692-3.839,12.177-6.862Z" transform="translate(-220.825 -551.936)" fill="#0b1036"/>
      <path id="Path_205" data-name="Path 205" d="M609.463,677.421H613.8v20.211H599.6V677.421h4.336v-.378H587.012v.378h4.454V719.48h-4.454v.378H603.94v-.378H599.6V698.01H613.8v21.47h-4.336v.378h16.928v-.378h-4.454V677.421h4.454v-.378H609.463Z" transform="translate(-207.043 -551.472)" fill="#0b1036"/>
      <path id="Path_206" data-name="Path 206" d="M516.488,718.95a16.444,16.444,0,0,0,8.255,2.33,12.4,12.4,0,0,0,12.711-12.151,7.794,7.794,0,0,0-2.019-5.542l-19.065-22.1c-.238-.317-.357-.5-.357-.692,0-.63,3.03-4.03,8.018-4.03a12.6,12.6,0,0,1,5.938,1.448h-.118l4.811,9.886h.416l-.177-10.768h-.475l-4.1.567a14.193,14.193,0,0,0-6.3-1.51,11.512,11.512,0,0,0-11.523,11.143,8.069,8.069,0,0,0,2.256,5.668l18.531,21.218a2.06,2.06,0,0,1,.656,1.448c0,1.51-3.743,5.037-9.208,5.037a15.879,15.879,0,0,1-7.78-2.2L511.974,708H511.5l-.059,12.278h.416Z" transform="translate(-255.642 -551.887)" fill="#0b1036"/>
      <path id="Path_207" data-name="Path 207" d="M547.633,694.956c-.2.327-.394.655-.575.981l-.016-.016C547.238,695.593,547.435,695.283,547.633,694.956Z" transform="translate(-232.747 -540.135)" fill="#0b1036"/>
      <path id="Path_208" data-name="Path 208" d="M504.276,677.04v.376h1.479l4.223,3.968v25.065l-4.885-8.1a43.994,43.994,0,0,1-3.922,9.407l7.493,12.1h1.791V681.384l3.73-3.968h1.134v-.376Z" transform="translate(-262.247 -551.474)" fill="#0b1036"/>
      <path id="Path_209" data-name="Path 209" d="M557.686,751.933c-8.265,10.092-19.75,17.7-32.648,20.183-8.577,1.8-17.055.065-25.435-1.813-8.462-2.156-16.677-6.679-25.7-7.087a35.935,35.935,0,0,0-17.137,3.315,81.126,81.126,0,0,0-11.4,6.336c-1.446.931-2.892,1.894-4.3,2.841a80.359,80.359,0,0,1,14.278-9.275c2.695-1.47,5.422-2.874,8.068-4.311,11.7-6.254,24.466-9.961,36.214-16.182,10.779-6.14,21.442-13.259,30.052-22.257.033-.049.082-.082.115-.131a72.175,72.175,0,0,0,9.727-12.688c.131-.229.246-.441.345-.653.082-.147.148-.294.23-.425,0-.016.016-.016.016-.033a41.565,41.565,0,0,0,3.763-9.52c.016-.049.016-.1.033-.147.049-.229.1-.441.148-.669,1.791-7.92.411-15.627-5.915-21.555-.361-.343-.789-.67-1.183-1.013-.2-.147-.378-.327-.592-.474a27.808,27.808,0,0,0-2.875-2.008c-.312-.163-.641-.294-.953-.441-.394-.2-.789-.392-1.183-.555-12.356-5.176-25.895-1.127-36.23,5.47-7.1,5.046-14.722,11.79-15.708,20.918-.46,4.278-.148,9.716,3.993,12.165a7.973,7.973,0,0,0,1.692.8,13.107,13.107,0,0,0,4.65.425c.148-.016.3-.016.444-.033a27.443,27.443,0,0,0,6.244-1.5,33.48,33.48,0,0,0,3.138-1.339c.263-.131.509-.261.772-.392.246-.131.509-.245.756-.376.181-.1.345-.212.526-.31.115-.065.247-.147.362-.212.279-.164.542-.327.805-.49a31.366,31.366,0,0,0,6.72-5.715,31.374,31.374,0,0,0,7.755-21.9l-.822.033a33.258,33.258,0,0,1-1.857,12.786,27.2,27.2,0,0,1-5.209,8.7l-7.328-22.11h-2.2l-9.957,32.348a9.565,9.565,0,0,1-6.622-1.519,6.814,6.814,0,0,1-1.61-1.682c-1.528-2.253-1.857-5.389-1.347-8.638.723-4.556,3.073-9.275,6.112-11.92,8.84-9.259,21.13-15.856,34.111-16.493a23.211,23.211,0,0,1,10.2,1.715,15.164,15.164,0,0,1,1.791.882,15.623,15.623,0,0,1,3.615,2.874c3.861,4.066,5.5,10.091,4.633,17.031l-7.673-12.7c-.772-1.274-.887-1.323-1.84-1.323H518.729v.376h2.793c.723,0,1.019.18,1.5.947l.592.931v36.218l-3.746,3.952h-3.549l-6.255-18.87a32.149,32.149,0,0,1-6.719,5.612l-.038.008.228.709,4.173,12.541h-4.157v.392h20.473a152.326,152.326,0,0,1-15.034,12.41c-14.1,10.565-31.169,15.856-46.171,24.935-7.591,4.491-15.231,8.9-22.264,14.223A6.293,6.293,0,0,0,438.874,777a.623.623,0,0,0,.016.294.448.448,0,0,0,.329.212,1.568,1.568,0,0,0,.674-.245c.082-.033.148-.082.247-.114.805-.506,1.61-1.013,2.432-1.519.345-.212.69-.408,1.052-.621a52.364,52.364,0,0,1,5.077-2.76c11.65-5.748,24.991-5.781,36.986-1.257a82.516,82.516,0,0,0,26.388,5.16c13.72-.18,26.8-5.764,37.1-14.549a64.12,64.12,0,0,0,8.938-9.324Zm-66.5-42.048.115-.376,5.521-17.815h.411l5.422,16.411c-.1.065-.2.114-.3.18-.214.13-.444.261-.657.392-.312.18-.624.359-.953.523a6.445,6.445,0,0,1-.575.31c-.247.13-.509.261-.756.376-.279.147-.575.261-.871.392a29.343,29.343,0,0,1-8.2,2.3Zm32.895-26,13.441,21.685a59.059,59.059,0,0,1-11.239,15.839l-2.2-2.074Z" transform="translate(-302.315 -555.286)" fill="#0b1036"/>
      <path id="Path_210" data-name="Path 210" d="M542.276,710.337V691.485c-2.727,2.956-5.455,5.944-8.133,8.948v9.9H529.69v.375h17.22v-.375Z" transform="translate(-243.906 -542.332)" fill="#0b1036"/>
      <path id="Path_211" data-name="Path 211" d="M556.61,706.963l-5.963-10.147,0,.015c-1.572,2.654-3.178,5.389-4.767,8.106l1.221,2.027h-3.713c-.016.016-.016.032-.033.049v.327h15.264v-.375Z" transform="translate(-235.121 -538.957)" fill="#0b1036"/>
      <path id="Path_212" data-name="Path 212" d="M570.365,677.416v-.376H564.19c-1.259,2.178-4.824,7.889-6.477,10.526V719.48H553.26v.375h17.1v-.375h-4.518V677.416Z" transform="translate(-228.748 -551.474)" fill="#0b1036"/>
      <g id="Group_26" data-name="Group 26" transform="translate(178.5 53.366)">
        <g id="Group_24" data-name="Group 24" transform="translate(64.772)">
          <path id="Path_213" data-name="Path 213" d="M507.889,638.351v-.915H505.5l2.518-4.537h-3.8v.915h2.121l-2.518,4.537Z" transform="translate(-503.817 -632.778)" fill="#0b1036"/>
          <path id="Path_214" data-name="Path 214" d="M508.7,637.207h2.092l.458,1.145h1.088L510.17,632.9h-.794l-2.23,5.452h1.1Zm1.058-2.828.738,1.963H509.02Z" transform="translate(-501.675 -632.778)" fill="#0b1036"/>
          <path id="Path_215" data-name="Path 215" d="M514.394,637.911a1.493,1.493,0,0,0,.442-1.1,1.43,1.43,0,0,0-.373-1.021,1.194,1.194,0,0,0-.675-.344,1.169,1.169,0,0,0,.582-1.07,1.445,1.445,0,0,0-.481-1.128,1.958,1.958,0,0,0-1.267-.345h-1.283v5.452h1.742A1.847,1.847,0,0,0,514.394,637.911Zm-2.044-4.144h.294c.412,0,.777.189.777.686a.7.7,0,0,1-.785.712h-.286Zm0,3.72v-1.5h.371a1.594,1.594,0,0,1,.692.1.66.66,0,0,1,.381.622.71.71,0,0,1-.319.629,1.323,1.323,0,0,1-.692.149Z" transform="translate(-498.98 -632.778)" fill="#0b1036"/>
          <path id="Path_216" data-name="Path 216" d="M515.872,638.351h1.009v-2.492l1.828-2.96h-1.2l-1.112,1.9-1.112-1.9h-1.2l1.781,2.96Z" transform="translate(-497.21 -632.778)" fill="#0b1036"/>
          <path id="Path_217" data-name="Path 217" d="M518.9,638.351H519.9v-4.537h1.167V632.9h-3.342v.915H518.9Z" transform="translate(-494.87 -632.778)" fill="#0b1036"/>
          <path id="Path_218" data-name="Path 218" d="M521.825,636.03l.115-.123,1.842,2.445h1.338l-2.309-2.934L525,632.9h-1.274l-1.9,2.306V632.9h-1.011v5.452h1.011Z" transform="translate(-492.886 -632.778)" fill="#0b1036"/>
          <path id="Path_219" data-name="Path 219" d="M526.9,638.521a2.849,2.849,0,1,0-2.767-2.845A2.691,2.691,0,0,0,526.9,638.521Zm0-4.732a1.891,1.891,0,1,1-1.725,1.888A1.742,1.742,0,0,1,526.9,633.788Z" transform="translate(-490.751 -632.825)" fill="#0b1036"/>
          <path id="Path_220" data-name="Path 220" d="M531,638.37l1.189-3.457,1.134,3.457h.762l1.921-5.452h-1.074l-1.243,3.711-1.2-3.759h-.56l-1.266,3.759-1.159-3.711h-1.072l1.8,5.452Z" transform="translate(-487.985 -632.797)" fill="#0b1036"/>
          <path id="Path_221" data-name="Path 221" d="M536.949,637.436h-1.865v-1.488h1.787v-.915h-1.787v-1.218h1.865V632.9h-2.875v5.452h2.875Z" transform="translate(-484.359 -632.778)" fill="#0b1036"/>
        </g>
        <g id="Group_25" data-name="Group 25" transform="translate(0 0.122)">
          <path id="Path_222" data-name="Path 222" d="M465.95,637.208h2.09l.458,1.143h1.088l-2.167-5.451h-.792l-2.231,5.451h1.1Zm1.056-2.83.738,1.963h-1.476Z" transform="translate(-464.396 -632.9)" fill="#0b1036"/>
          <path id="Path_223" data-name="Path 223" d="M469.338,636.333h.654a1.72,1.72,0,0,0,1.311-.482,1.8,1.8,0,0,0,.429-1.218,1.649,1.649,0,0,0-1.9-1.732h-1.508v5.451h1.01Zm0-2.516h.35a1.176,1.176,0,0,1,.715.17.773.773,0,0,1,.288.622.826.826,0,0,1-.281.638,1,1,0,0,1-.659.17h-.412Z" transform="translate(-461.868 -632.9)" fill="#0b1036"/>
          <path id="Path_224" data-name="Path 224" d="M472.175,637.208h2.092l.458,1.143h1.088l-2.167-5.451h-.794l-2.23,5.451h1.1Zm1.058-2.83.738,1.963h-1.477Z" transform="translate(-460.392 -632.9)" fill="#0b1036"/>
          <path id="Path_225" data-name="Path 225" d="M475.564,636.161h.123l1.385,2.19h1.257l-1.615-2.3a1.372,1.372,0,0,0,.567-.238,1.511,1.511,0,0,0,.606-1.282,1.59,1.59,0,0,0-.514-1.226,1.84,1.84,0,0,0-1.319-.408h-1.5v5.451h1.012Zm0-2.4h.3c.187,0,.979.008.979.818s-.8.825-.994.825h-.288Z" transform="translate(-457.865 -632.9)" fill="#0b1036"/>
          <path id="Path_226" data-name="Path 226" d="M478.505,638.351h1.009v-4.535h1.166V632.9h-3.342v.915h1.167Z" transform="translate(-456.073 -632.9)" fill="#0b1036"/>
          <path id="Path_227" data-name="Path 227" d="M481.182,637.208h2.09l.46,1.143h1.088l-2.167-5.451h-.794l-2.23,5.451h1.1Zm1.058-2.83.738,1.963H481.5Z" transform="translate(-454.6 -632.9)" fill="#0b1036"/>
          <path id="Path_228" data-name="Path 228" d="M484.953,634.992l1.329,3.358h.343l1.391-3.358.465,3.358h1.027l-.871-5.451h-.73l-1.438,3.465-1.377-3.465h-.73l-.964,5.451h1.027Z" transform="translate(-452.176 -632.9)" fill="#0b1036"/>
          <path id="Path_229" data-name="Path 229" d="M490.953,637.435h-1.864v-1.488h1.788v-.915h-1.788v-1.217h1.864V632.9h-2.875v5.451h2.875Z" transform="translate(-449.167 -632.9)" fill="#0b1036"/>
          <path id="Path_230" data-name="Path 230" d="M491.837,634.705l3.155,3.645h.7V632.9h-1.009v3.636l-3.156-3.636h-.7v5.451h1.011Z" transform="translate(-447.399 -632.9)" fill="#0b1036"/>
          <path id="Path_231" data-name="Path 231" d="M495.745,638.351h1.009v-4.535h1.167V632.9h-3.342v.915h1.167Z" transform="translate(-444.986 -632.9)" fill="#0b1036"/>
          <path id="Path_232" data-name="Path 232" d="M498.961,638.351h1.009v-2.492L501.8,632.9h-1.2l-1.112,1.9-1.112-1.9h-1.2l1.781,2.958Z" transform="translate(-443.313 -632.9)" fill="#0b1036"/>
        </g>
      </g>
      <g id="Group_27" data-name="Group 27" transform="translate(207.652)">
        <path id="Path_233" data-name="Path 233" d="M511.471,603.91h0Z" transform="translate(-463.275 -597.76)" fill="none"/>
        <path id="Path_234" data-name="Path 234" d="M484.621,605.774a1.171,1.171,0,0,0-1.183,1.159v1a1.175,1.175,0,1,0,2.35,0v-1A1.167,1.167,0,0,0,484.621,605.774Zm.772,2.155a.769.769,0,0,1-.772.768h-.049a.176.176,0,0,1-.1-.033h-.066c-.016-.016-.049-.016-.082-.033-.1-.033-.148-.114-.23-.18-.033-.033-.082-.049-.1-.082a.713.713,0,0,1-.148-.441v-1a.767.767,0,0,1,.23-.539.721.721,0,0,1,.542-.229.769.769,0,0,1,.772.768Z" transform="translate(-481.302 -596.581)" fill="#0b1036"/>
        <path id="Path_235" data-name="Path 235" d="M494.877,609.1a1.177,1.177,0,0,0,1.178-1.171v-.988a1.177,1.177,0,0,0-2.355,0v.988A1.175,1.175,0,0,0,494.877,609.1Zm-.772-2.159a.772.772,0,0,1,1.544,0v.988a.772.772,0,0,1-1.544,0Z" transform="translate(-474.703 -596.582)" fill="#0b1036"/>
        <path id="Path_236" data-name="Path 236" d="M508.262,609.1a1.175,1.175,0,0,0,1.178-1.171v-.988a1.177,1.177,0,0,0-2.355,0v.988A1.175,1.175,0,0,0,508.262,609.1Zm-.771-2.159a.771.771,0,0,1,1.543,0v.988a.771.771,0,0,1-1.543,0Z" transform="translate(-466.095 -596.582)" fill="#0b1036"/>
        <path id="Path_237" data-name="Path 237" d="M517.633,609.1a1.174,1.174,0,0,0,1.178-1.169v-.991a1.177,1.177,0,0,0-2.355,0v.991A1.174,1.174,0,0,0,517.633,609.1Zm-.774-2.159a.751.751,0,0,1,.227-.542l0,0,0,0a.736.736,0,0,1,.135-.09.709.709,0,0,1,.115-.077.782.782,0,0,1,.3-.057.771.771,0,0,1,.772.767v.991a.771.771,0,0,1-.772.768l-.044,0a.557.557,0,0,1-.107-.023l-.054-.011a.371.371,0,0,1-.094-.023.766.766,0,0,1-.475-.709Z" transform="translate(-460.068 -596.583)" fill="#0b1036"/>
        <path id="Path_238" data-name="Path 238" d="M516.976,606.1a.743.743,0,0,0-.135.09l0,0,0,0v0A.759.759,0,0,1,516.976,606.1Z" transform="translate(-459.823 -596.375)" fill="#0b1036"/>
        <path id="Path_239" data-name="Path 239" d="M490.628,615.415l-4.08,2.9h8.158Zm0,.495,2.821,2.008h-5.642Z" transform="translate(-479.302 -590.479)" fill="#0b1036"/>
        <path id="Path_240" data-name="Path 240" d="M518.215,618.32l-4.078-2.9-4.08,2.9Zm-1.259-.4h-5.641l2.821-2.008Z" transform="translate(-464.184 -590.479)" fill="#0b1036"/>
        <path id="Path_241" data-name="Path 241" d="M493.741,611.644H490.6v4.794h3.14Zm-1.776,4.393h-.958v-3.991h.958Zm1.37,0h-.964v-3.991h.964Z" transform="translate(-476.696 -592.865)" fill="#0b1036"/>
        <path id="Path_242" data-name="Path 242" d="M491.216,611.644h-3.14v4.794h3.14Zm-1.776,4.393h-.958v-3.991h.958Zm1.37,0h-.964v-3.991h.964Z" transform="translate(-478.319 -592.865)" fill="#0b1036"/>
        <path id="Path_243" data-name="Path 243" d="M488.692,611.644H485.55v4.794h3.142Zm-1.77,4.393h-.966v-3.991h.966Zm1.362,0h-.958v-3.991h.958Z" transform="translate(-479.944 -592.865)" fill="#0b1036"/>
        <path id="Path_244" data-name="Path 244" d="M490.6,622.992h3.14V618.2H490.6Zm1.77-4.393h.964v3.991h-.964Zm-1.364,0h.958v3.991h-.958Z" transform="translate(-476.696 -588.717)" fill="#0b1036"/>
        <path id="Path_245" data-name="Path 245" d="M488.076,622.992h3.14V618.2h-3.14Zm1.77-4.393h.964v3.991h-.964Zm-1.364,0h.958v3.991h-.958Z" transform="translate(-478.319 -588.717)" fill="#0b1036"/>
        <path id="Path_246" data-name="Path 246" d="M488.692,618.2H485.55v4.794h3.142Zm-1.77,4.393h-.966V618.6h.966Zm1.362,0h-.958V618.6h.958Z" transform="translate(-479.944 -588.717)" fill="#0b1036"/>
        <path id="Path_247" data-name="Path 247" d="M514.109,622.992h3.14V618.2h-3.14Zm1.77-4.393h.966v3.991h-.966Zm-1.364,0h.958v3.991h-.958Z" transform="translate(-461.578 -588.717)" fill="#0b1036"/>
        <path id="Path_248" data-name="Path 248" d="M511.585,622.992h3.14V618.2h-3.14Zm1.768-4.393h.966v3.991h-.966Zm-1.364,0h.958v3.991h-.958Z" transform="translate(-463.201 -588.717)" fill="#0b1036"/>
        <path id="Path_249" data-name="Path 249" d="M509.059,622.992h3.14V618.2h-3.14Zm1.776-4.393h.958v3.991h-.958Zm-1.37,0h.965v3.991h-.965Z" transform="translate(-464.825 -588.717)" fill="#0b1036"/>
        <path id="Path_250" data-name="Path 250" d="M498.378,622.992h3.14V618.2h-3.14Zm1.77-4.393h.965v3.991h-.965Zm-1.364,0h.958v3.991h-.958Z" transform="translate(-471.694 -588.717)" fill="#0b1036"/>
        <path id="Path_251" data-name="Path 251" d="M495.366,622.992h3.148V618.2h-3.148Zm1.778-4.393h.964v3.991h-.964Zm-1.372,0h.966v3.991h-.966Z" transform="translate(-473.631 -588.717)" fill="#0b1036"/>
        <path id="Path_252" data-name="Path 252" d="M540.566,615.771v-.49h.772l.016-1.584-3.2-.016-.049-.082c-.674-.947-2.925-4.539-3.007-11.088l-.016-.327-.657-.359v-1.682h-3.648v1.7l-.592.326-.279,2.825H526.83v-1.943H499.867v1.943h-3.6l-.033-.131a15.013,15.013,0,0,1-.214-2.351l-.016-.31-.575-.359v-1.7h-3.615l.016,1.682-.657.376.033.359a20.082,20.082,0,0,1-3.073,11.039l-.049.065h-4.453v1.617h.624v.49h-2.12l2.12,1.8v24.494h56.309V617.584l.049-.049,2.218-1.764Zm-9.99-7.332c.016-.114.033-.2.049-.278.033-.163.066-.343.1-.506l.033-.212c.016-.163.049-.31.066-.441.033-.229.066-.425.082-.6v-.1l.066-.506.3-3h.115l.526-.31v-1.061h.329v.016h.707v-.016h.329V602.5l.69.359v.1c.016.719.066,1.339.115,1.91a23.2,23.2,0,0,0,.887,4.638c.082.294.181.588.279.865a16.8,16.8,0,0,0,1,2.368c.033.065.082.147.115.229l.016.033c.1.163.181.327.263.457l.049.065a.9.9,0,0,0,.082.131,1.426,1.426,0,0,0,.1.163l.2.294.049.082.164.212h-2.695v-2.417a1.824,1.824,0,0,0-3.648,0V614.4h-2.826l.23-.278a3.605,3.605,0,0,0,.312-.425c.033-.032.049-.049.049-.065.1-.147.181-.294.279-.425.049-.1.115-.212.164-.31l.082-.18a2.7,2.7,0,0,0,.246-.539.2.2,0,0,1,.033-.049c.066-.2.131-.343.2-.523.082-.212.164-.425.23-.653.082-.245.148-.474.214-.719a1.11,1.11,0,0,0,.049-.13.474.474,0,0,1,.033-.147c.082-.327.164-.653.23-.963.033-.131.049-.261.082-.392Zm.772,3.609.016-.18a1.4,1.4,0,0,1,2.793,0l.016.18Zm2.826.408V614.4h-1.216v-1.943Zm-1.61,0V614.4h-1.216v-1.943ZM501,604.177h24.7v1.535H501Zm-4.962,2.107,34.456.033c-.214,1.862-.953,6.385-2.958,8.05l-.033.033H498.815l-.049-.033c-1.725-1.159-2.728-6.042-3.073-8.083Zm-6.917,7.871a21.9,21.9,0,0,0,1.3-2.4c.1-.212.2-.441.3-.653l.016-.049c.082-.2.164-.392.23-.588l.033-.1c.082-.212.164-.425.23-.637l.016-.033c.082-.212.148-.425.214-.653.131-.457.246-.882.345-1.241.082-.408.164-.8.23-1.176a4.436,4.436,0,0,0,.082-.457l.033-.131c.016-.147.049-.31.066-.457l.016-.147a2.431,2.431,0,0,0,.033-.343l.017-.049a3.143,3.143,0,0,1,.033-.392v-.1c.016-.114.016-.212.033-.31v-.1c0-.1.016-.2.016-.278v-.343a1.964,1.964,0,0,0,.016-.294v-.392l.591-.359v-1.225H494.3v1.225l.591.376v.2a.241.241,0,0,1,.016.114v.13l.016.1a11.541,11.541,0,0,0,.131,1.225l.017.229c.131,1,.953,6.973,2.859,9.291l.23.261h-2.875v-2.417a1.816,1.816,0,0,0-3.631,0V614.4h-2.695Zm2.925-2.107.017-.18a1.408,1.408,0,0,1,1.4-1.29,1.424,1.424,0,0,1,1.413,1.29l.016.18Zm2.826.408V614.4h-1.2v-1.943Zm-1.61,0V614.4h-1.216v-1.943Zm-7.87,2.335,51.971.016.164-.016h.641v.016h1.249v.963H485.391Zm0,1.372h54.025v.947H485.391Zm54.025,1.339v18.6H524.842V617.5Zm-54.025,0h16.283v18.6H485.391Zm25.747,23.416H485.391v-3.69h25.747Zm1.906,0h-1.5v-3.69h1.5Zm11.387,0H513.455v-.931h10.976Zm0-1.323H513.455v-1h10.976Zm0-1.4H513.455v-.963h10.976Zm-4.009-4.18v-3.984h1.15v3.984Zm1.15.408V636.1h-1.15v-1.682Zm-5.817-4.8v-1.633h5.817v1.633Zm4.256.408V636.1h-2.695v-6.075Zm-3.089,0v3.984h-1.167v-3.984Zm0,4.393V636.1h-1.167v-1.682Zm7.509,1.682h-2.448v-8.116h.887v-.408h-8.445v.408h.937V636.1H502.069V623.724h22.362Zm-20.144-12.786v-3.984h.953v3.984Zm1.364,0v-3.984h.969v3.984Zm3.582,0v-3.984h.953v3.984Zm1.364,0v-3.984h.953v3.984Zm4.42,0v-3.984h.953v3.984Zm1.364,0v-3.984h.953v3.984Zm3.565,0v-3.984h.969v3.984Zm1.38,0v-3.984h.969v3.984Zm3.105,0H522.69v-4.393h-3.138v4.393h-1.807v-4.393h-3.138v4.393H511.96v-4.393h-3.138v4.393h-1.807v-4.393h-3.138v4.393h-1.807V617.5h22.362Zm1.939,17.6h-1.528v-3.69h1.528Zm13.063,0H526.781v-3.69h12.652Z" transform="translate(-482.138 -600.144)" fill="#0b1036"/>
        <path id="Path_253" data-name="Path 253" d="M490.06,601.968l-.419-.417.03.166.389.254Z" transform="translate(-477.313 -599.253)" fill="#0b1036"/>
        <path id="Path_254" data-name="Path 254" d="M516.553,609.114v.016h-.805l.164-.016Z" transform="translate(-460.524 -594.466)" fill="#0b1036"/>
        <path id="Path_255" data-name="Path 255" d="M512.2,611.644h-3.14v4.794h3.14Zm-1.77,4.393h-.965v-3.991h.965Zm1.364,0h-.958v-3.991h.958Z" transform="translate(-464.825 -592.865)" fill="#0b1036"/>
        <path id="Path_256" data-name="Path 256" d="M514.725,611.644h-3.14v4.794h3.14Zm-1.778,4.393h-.958v-3.991h.958Zm1.372,0h-.966v-3.991h.966Z" transform="translate(-463.201 -592.865)" fill="#0b1036"/>
        <path id="Path_257" data-name="Path 257" d="M514.109,616.438h3.14v-4.794h-3.14Zm1.77-4.393h.966v3.991h-.966Zm-1.364,0h.958v3.991h-.958Z" transform="translate(-461.578 -592.865)" fill="#0b1036"/>
      </g>
      <rect id="Rectangle_4" data-name="Rectangle 4" width="117.362" height="1.143" transform="translate(178.501 40.775)" fill="#0b1036"/>
    </g>
  </g>
</svg>
