<svg id="nowe_historie_logo_decoartive" xmlns="http://www.w3.org/2000/svg" width="265.998" height="185.393" viewBox="0 0 265.998 185.393">
  <g id="Group_4" data-name="Group 4" transform="translate(15.442 174.374)">
    <g id="Group_2" data-name="Group 2" transform="translate(0 7.14)">
      <path id="Path_31" data-name="Path 31" d="M1585.112-768.4h13.074" transform="translate(-1585.112 768.398)" fill="#0b1036" stroke="#0b1036" stroke-width="1.3"/>
      <path id="Path_32" data-name="Path 32" d="M1771.156-768.4h13.074" transform="translate(-1554.438 768.398)" fill="#0b1036" stroke="#0b1036" stroke-width="1.3"/>
    </g>
    <g id="Group_3" data-name="Group 3" transform="translate(41.94)">
      <path id="Path_33" data-name="Path 33" d="M1627.344-770.071a3.359,3.359,0,0,1,1.075,2.5,3.348,3.348,0,0,1-1.075,2.486,3.667,3.667,0,0,1-2.577.9,3.666,3.666,0,0,1-2.576-.9,3.344,3.344,0,0,1-1.075-2.486,3.355,3.355,0,0,1,1.075-2.5,3.671,3.671,0,0,1,2.576-.9A3.672,3.672,0,0,1,1627.344-770.071Zm-.781,2.5a1.778,1.778,0,0,0-1.8-1.81,1.777,1.777,0,0,0-1.8,1.81,1.774,1.774,0,0,0,1.8,1.795A1.774,1.774,0,0,0,1626.563-767.569Z" transform="translate(-1621.116 775.117)" fill="#0b1036"/>
      <path id="Path_34" data-name="Path 34" d="M1638.569-774.532h1.8v10.725h-1.8v-.824a2.29,2.29,0,0,1-1.959,1.03,3.234,3.234,0,0,1-3.252-3.4,3.186,3.186,0,0,1,3.165-3.383,2.31,2.31,0,0,1,2.047,1.029ZM1635.213-767a1.744,1.744,0,0,0,1.765,1.81,1.746,1.746,0,0,0,1.767-1.81,1.733,1.733,0,0,0-1.767-1.795A1.732,1.732,0,0,0,1635.213-767Z" transform="translate(-1619.098 774.532)" fill="#0b1036"/>
      <path id="Path_35" data-name="Path 35" d="M1656.253-772.1h-1.414v-1.648h3.328v9.813h-1.914Z" transform="translate(-1615.556 774.661)" fill="#0b1036"/>
      <path id="Path_36" data-name="Path 36" d="M1671.737-766.581c0,1.618-1.3,2.9-3.415,2.9s-3.415-1.279-3.415-2.9a2.5,2.5,0,0,1,1.751-2.442,2.384,2.384,0,0,1-1.413-2.178,2.768,2.768,0,0,1,3.078-2.737,2.767,2.767,0,0,1,3.076,2.737,2.384,2.384,0,0,1-1.413,2.178A2.5,2.5,0,0,1,1671.737-766.581Zm-1.914-.133a1.471,1.471,0,0,0-1.5-1.531,1.471,1.471,0,0,0-1.5,1.531,1.47,1.47,0,0,0,1.5,1.529A1.47,1.47,0,0,0,1669.823-766.714Zm-.133-4.472a1.307,1.307,0,0,0-1.369-1.369,1.306,1.306,0,0,0-1.37,1.369,1.305,1.305,0,0,0,1.37,1.368A1.306,1.306,0,0,0,1669.69-771.186Z" transform="translate(-1613.896 774.629)" fill="#0b1036"/>
      <path id="Path_37" data-name="Path 37" d="M1681.192-772.1h-4.564v-1.648h7.567l-5.9,10.106-1.619-.721Z" transform="translate(-1611.963 774.661)" fill="#0b1036"/>
      <path id="Path_38" data-name="Path 38" d="M1693.846-767.319h1.148v1.529h-1.148v1.854h-1.8v-1.854h-4.8v-.853l4.873-7.105h1.723Zm-1.8,0v-3.737l-2.532,3.737Z" transform="translate(-1610.212 774.661)" fill="#0b1036"/>
      <path id="Path_39" data-name="Path 39" d="M1707.95-770.762h1.8v.957a2.155,2.155,0,0,1,.8-.884,1.958,1.958,0,0,1,1.059-.278,2.192,2.192,0,0,1,.766.147l-.236,1.676a1.355,1.355,0,0,0-.839-.235,1.472,1.472,0,0,0-1.193.516,2.19,2.19,0,0,0-.353,1.412v3.06h-1.8Z" transform="translate(-1606.799 775.117)" fill="#0b1036"/>
      <path id="Path_40" data-name="Path 40" d="M1723.384-770.071a3.359,3.359,0,0,1,1.075,2.5,3.348,3.348,0,0,1-1.075,2.486,3.665,3.665,0,0,1-2.576.9,3.667,3.667,0,0,1-2.577-.9,3.348,3.348,0,0,1-1.075-2.486,3.359,3.359,0,0,1,1.075-2.5,3.672,3.672,0,0,1,2.577-.9A3.671,3.671,0,0,1,1723.384-770.071Zm-.78,2.5a1.777,1.777,0,0,0-1.8-1.81,1.778,1.778,0,0,0-1.8,1.81,1.774,1.774,0,0,0,1.8,1.795A1.774,1.774,0,0,0,1722.6-767.569Z" transform="translate(-1605.281 775.117)" fill="#0b1036"/>
      <path id="Path_41" data-name="Path 41" d="M1731.47-774.532v6.679l2.384-2.325h2.326l-2.988,2.795,3.223,3.576h-2.385l-2.37-2.721-.191.177v2.545h-1.8v-10.725Z" transform="translate(-1603.217 774.532)" fill="#0b1036"/>
      <path id="Path_42" data-name="Path 42" d="M1742.864-770.791v3.605a1.432,1.432,0,0,0,.382,1.117,1.466,1.466,0,0,0,.912.324,1.467,1.467,0,0,0,.914-.324,1.432,1.432,0,0,0,.382-1.117v-3.605h1.8v3.9a2.4,2.4,0,0,1-.778,1.956,3.67,3.67,0,0,1-2.313.722,3.663,3.663,0,0,1-2.311-.722,2.406,2.406,0,0,1-.779-1.956v-3.9Z" transform="translate(-1601.339 775.146)" fill="#0b1036"/>
    </g>
  </g>
  <g id="Group_5" data-name="Group 5" transform="translate(5.324 5.941)">
    <path id="Path_46" data-name="Path 46" d="M1636.089-895.413l-6.8-23.818h-1.809l8.608,30.156Z" transform="translate(-1568.008 919.23)" fill="#a59f90"/>
    <path id="Path_47" data-name="Path 47" d="M1628.82-867.74c0,.722,2.644,3.853,2.644,3.853h-11.473c-.786,1.126-1.907,2.449-1.907,2.449h15.889s-2.644-3.131-2.644-3.853v-21.495l-2.509-8.449Z" transform="translate(-1569.558 923.166)" fill="#a59f90"/>
    <path id="Path_48" data-name="Path 48" d="M1645.137-863.8c0,.722,2.26,3.853,2.26,3.853h-10.578l.728,2.449h12.359s-2.26-3.131-2.26-3.853v-54.034c0-.745,2.644-3.841,2.644-3.841h-4.421a3.777,3.777,0,0,0-.733,1.392Z" transform="translate(-1566.469 919.23)" fill="#a59f90"/>
    <path id="Path_49" data-name="Path 49" d="M1667.783-856.55h.784c10,0,15-6.161,15-16.154v-31.743c0-6.134-1.893-10.816-5.662-13.524,2.094,2.745,3.153,6.5,3.153,11.075v31.744c0,9.993-5,16.154-15,16.154h-.784a15.652,15.652,0,0,1-9.339-2.631C1658.417-858.375,1662.358-856.55,1667.783-856.55Z" transform="translate(-1563.317 919.437)" fill="#a59f90"/>
    <path id="Path_50" data-name="Path 50" d="M1662.674-905.98c0-2.646,1.765-5.573,4.411-5.573h.784a3.489,3.489,0,0,1,1.219.226,4.3,4.3,0,0,0-3.726-2.675h-.784c-2.648,0-4.412,2.929-4.412,5.573v33.507c0,2.214,1.24,4.619,3.194,5.346a6.657,6.657,0,0,1-.685-2.9Z" transform="translate(-1562.62 920.088)" fill="#a59f90"/>
    <path id="Path_51" data-name="Path 51" d="M1701.535-863.669h-11.043c-.436,1.122-1.057,2.448-1.057,2.448h14.609l3.525-25.184-1.426-10.184Z" transform="translate(-1557.794 922.944)" fill="#a59f90"/>
    <path id="Path_52" data-name="Path 52" d="M1713.564-893.946l-3.2-25.284h-2.2l4.494,35.553Z" transform="translate(-1554.705 919.23)" fill="#a59f90"/>
    <path id="Path_53" data-name="Path 53" d="M1697.286-894.843l-2.139-24.387h-2.294l3.119,35.553Z" transform="translate(-1557.23 919.23)" fill="#a59f90"/>
    <path id="Path_54" data-name="Path 54" d="M1720.467-863.8a21.048,21.048,0,0,0,1.569,3.846h-12.443l.342,2.448h14.609a21.077,21.077,0,0,1-1.568-3.845l5.178-54.034a22.981,22.981,0,0,1,2.862-3.844h-4.506a7.3,7.3,0,0,0-.865,1.395Z" transform="translate(-1554.47 919.23)" fill="#a59f90"/>
    <path id="Path_55" data-name="Path 55" d="M1755.046-913.145h-13.8v16.754h2.509v-14.3h13.8c.785,0,3.848,2.645,3.848,2.645V-919.23h-2.509v8.731S1755.831-913.145,1755.046-913.145Z" transform="translate(-1549.252 919.23)" fill="#a59f90"/>
    <path id="Path_56" data-name="Path 56" d="M1733.721-866.913l-1.686,2.448h30.884V-876.81s-1.366,1.179-2.509,1.964v7.933Z" transform="translate(-1550.77 926.189)" fill="#a59f90"/>
    <path id="Path_57" data-name="Path 57" d="M1751.516-889.881h-10.272v17.036h2.509v-14.588h10.271c.733,0,3.847,2.646,3.847,2.646v-14.99s-1.371,1.163-2.508,1.948v10.594S1752.248-889.881,1751.516-889.881Z" transform="translate(-1549.252 922.421)" fill="#a59f90"/>
    <path id="Path_58" data-name="Path 58" d="M1793.173-819.229H1782.9v17.036h2.508V-816.78h10.272c.731,0,3.846,2.645,3.846,2.645v-14.99s-1.371,1.164-2.508,1.947v10.594S1793.906-819.229,1793.173-819.229Z" transform="translate(-1542.383 934.01)" fill="#a59f90"/>
    <path id="Path_59" data-name="Path 59" d="M1799.211-840.043c.785,0,3.846,2.646,3.846,2.646v-11.181h-2.508v8.731s-3.061-2.646-3.848-2.646h-13.8v16.754h2.508v-14.3Z" transform="translate(-1542.383 930.82)" fill="#a59f90"/>
    <path id="Path_60" data-name="Path 60" d="M1775.379-796.261l-1.686,2.448h30.883v-12.345s-1.366,1.18-2.508,1.964v7.933Z" transform="translate(-1543.901 937.778)" fill="#a59f90"/>
    <path id="Path_61" data-name="Path 61" d="M1587.154-819.624V-797.9c0,.709,2.648,3.845,2.648,3.845h-11.474c-.783,1.122-1.9,2.448-1.9,2.448h15.883s-2.648-3.135-2.648-3.844v-21.727h6.316v-2.449Z" transform="translate(-1576.426 935.569)" fill="#a59f90"/>
    <path id="Path_62" data-name="Path 62" d="M1608.974-848.578h-4.195l-.96,1.395v54.036c0,.676,2.647,3.845,2.647,3.845h-11.474c-.783,1.122-1.9,2.448-1.9,2.448h15.883s-2.647-3.167-2.647-3.844v-54.036Z" transform="translate(-1573.678 930.82)" fill="#a59f90"/>
    <path id="Path_63" data-name="Path 63" d="M1585.635-824.574h2.508v-20.16l2.648-3.843h-4.2l-.961,1.395Z" transform="translate(-1574.908 930.82)" fill="#a59f90"/>
    <path id="Path_64" data-name="Path 64" d="M1626.619-848.578h-4.195l-.961,1.395v54.036c0,.709,2.648,3.845,2.648,3.845h-11.483c-.783,1.12-1.892,2.448-1.892,2.448h15.883s-2.648-3.135-2.648-3.844v-54.036Z" transform="translate(-1570.769 930.82)" fill="#a59f90"/>
    <path id="Path_65" data-name="Path 65" d="M1652.32-830.747v.2a20.036,20.036,0,0,1,1.695,5.5h.813v-23.538a2.4,2.4,0,0,1-2.4,1.786c-.036,0-.076-.008-.113-.012v16.057Z" transform="translate(-1563.913 930.82)" fill="#a59f90"/>
    <path id="Path_66" data-name="Path 66" d="M1633.965-805.5a21.566,21.566,0,0,1-3.765-8.476h-.819v2.615A15.08,15.08,0,0,0,1633.965-805.5Z" transform="translate(-1567.695 936.496)" fill="#a59f90"/>
    <path id="Path_67" data-name="Path 67" d="M1646.931-823.766c-4.1-4.1-6.961-6.858-6.961-10.68,0-3.526,1.667-6.455,4.9-6.455a9.372,9.372,0,0,1,5.7,1.969c-2.007-2.484-4.706-4.419-8.205-4.419-3.236,0-4.9,2.929-4.9,6.455,0,3.823,2.856,6.579,6.961,10.68,4.874,4.872,12.844,12.576,12.844,21.145,0,9.991-5.317,16.074-15,16.074h-.393c-8.14,0-10.747-2.9-12.492-4.116v2.845s.529-.935,1.207-.935c2.043,0,3.485,4.654,13.794,4.654h.391c9.685,0,15-6.082,15-16.073C1659.775-811.191,1651.806-818.9,1646.931-823.766Z" transform="translate(-1567.695 931.677)" fill="#a59f90"/>
    <path id="Path_68" data-name="Path 68" d="M1660.8-843.35a3.361,3.361,0,0,0-1.338.665v4.43s3.005-2.646,3.846-2.646h2.469v-2.449Z" transform="translate(-1562.736 931.677)" fill="#a59f90"/>
    <path id="Path_69" data-name="Path 69" d="M1684.316-839.847s-3.151-2.646-3.848-2.646h-4.976v49.344c0,.717,2.646,3.845,2.646,3.845h-11.479c-.783,1.121-1.9,2.448-1.9,2.448h15.883S1678-789.982,1678-790.7v-49.344h4.976c.7,0,3.848,2.646,3.848,2.646v-11.181h-2.508Z" transform="translate(-1561.862 930.82)" fill="#a59f90"/>
    <path id="Path_70" data-name="Path 70" d="M1698.177-835.328c0-2.645,1.765-5.573,4.412-5.573h.784a3.464,3.464,0,0,1,1.217.227,4.3,4.3,0,0,0-3.725-2.676h-.785c-2.648,0-4.411,2.929-4.411,5.575v33.507c0,2.213,1.238,4.618,3.193,5.345a6.668,6.668,0,0,1-.685-2.9Z" transform="translate(-1556.766 931.677)" fill="#a59f90"/>
    <path id="Path_71" data-name="Path 71" d="M1713.41-847.319c2.093,2.745,3.153,6.5,3.153,11.075V-804.5c0,9.993-5,16.155-15,16.155h-.785a15.656,15.656,0,0,1-9.339-2.631c2.482,3.253,6.423,5.079,11.848,5.079h.784c10,0,15-6.161,15-16.155V-833.8C1719.071-839.93,1717.178-844.612,1713.41-847.319Z" transform="translate(-1557.463 931.026)" fill="#a59f90"/>
    <path id="Path_72" data-name="Path 72" d="M1746.906-832.5c0,9.69-5.513,11.228-5.513,11.228a6.938,6.938,0,0,1,2.874,2.306c1.218-.535,5.148-2.893,5.148-11.085v-2.646c0-6.442-2.415-11.149-6.187-14.023a17.993,17.993,0,0,1,3.679,11.575Z" transform="translate(-1549.227 931.125)" fill="#a59f90"/>
    <path id="Path_73" data-name="Path 73" d="M1751.733-805.455s-.043,5.18-1.157,5.18a.79.79,0,0,1-.688-.488c-.867,2.887-2.631,5.551-6.2,5.551a7.613,7.613,0,0,1-3.6-.809c.932,1.653,2.7,3.258,6.1,3.258,7.8,0,7-12.693,7-12.693Z" transform="translate(-1549.442 937.893)" fill="#a59f90"/>
    <path id="Path_74" data-name="Path 74" d="M1734.048-839.9h.568a6.282,6.282,0,0,1,2.634.533,5.424,5.424,0,0,0-5.143-2.982h-.569a2.078,2.078,0,0,0-2.078,2.078v13.547h2.508v-11.1A2.078,2.078,0,0,1,1734.048-839.9Z" transform="translate(-1551.194 931.841)" fill="#a59f90"/>
    <path id="Path_75" data-name="Path 75" d="M1733.432-821.593h-2.452v24.02c0,.717,2.647,3.845,2.647,3.845h-11.472c-.784,1.126-1.9,2.449-1.9,2.449h15.883s-2.648-3.128-2.648-3.845v-24.02h2.452a7.45,7.45,0,0,1,2.951.837A6.8,6.8,0,0,0,1733.432-821.593Z" transform="translate(-1552.713 935.246)" fill="#a59f90"/>
    <path id="Path_76" data-name="Path 76" d="M1746.432-801.393s.113,1.455.961,1.455c1.114,0,1.157-5.181,1.157-5.181h.4c0-2.666.006-5.324.006-5.97,0-7.619-3.264-10.443-4.767-11.342,1.194,1.761,2.259,4.548,2.259,8.894C1746.446-812.145,1746.432-801.393,1746.432-801.393Z" transform="translate(-1548.766 935.108)" fill="#a59f90"/>
    <path id="Path_77" data-name="Path 77" d="M1771.392-848.578h-4.422a3.773,3.773,0,0,0-.734,1.395v54.036c0,.709,2.647,3.845,2.647,3.845h-11.473c-.784,1.122-1.9,2.448-1.9,2.448h15.884s-2.648-3.135-2.648-3.844v-54.036C1768.745-845.48,1771.392-848.578,1771.392-848.578Z" transform="translate(-1546.9 930.82)" fill="#a59f90"/>
  </g>
  <g id="Group_8" data-name="Group 8">
    <g id="Group_6" data-name="Group 6" transform="translate(48.525)">
      <path id="Path_78" data-name="Path 78" d="M1646.166-865.458c0,.722,2.26,3.853,2.26,3.853h-12.36l-9.307-31.347v27.494c0,.722,2.645,3.853,2.645,3.853h-15.89s2.657-3.131,2.657-3.853v-54.034c0-.744-2.657-3.841-2.657-3.841h12.755l9.307,32.6v-28.763c0-.732-2.644-3.841-2.644-3.841h15.877s-2.643,3.1-2.643,3.841Z" transform="translate(-1613.513 924.498)" fill="#0b1036"/>
      <path id="Path_79" data-name="Path 79" d="M1664.443-924.334c10,0,15,6.16,15,16.153v31.744c0,9.993-5,16.153-15,16.153h-.784c-10,0-15-6.16-15-16.153v-31.744c0-9.993,5-16.153,15-16.153Zm4.412,15.272c0-2.645-1.765-5.573-4.412-5.573h-.784c-2.647,0-4.412,2.929-4.412,5.573v33.507c0,2.646,1.766,5.572,4.412,5.572h.784c2.648,0,4.412-2.926,4.412-5.572Z" transform="translate(-1607.718 924.334)" fill="#0b1036"/>
      <path id="Path_80" data-name="Path 80" d="M1700.39-861.611h-14.609a22.015,22.015,0,0,0,1.47-3.844l-5.2-54.032a23.56,23.56,0,0,0-2.744-3.847h12.745l3.334,38,4.02-34.155a22.949,22.949,0,0,0-1.372-3.847H1709.8l4.8,38,3.334-38h12.746a23.022,23.022,0,0,0-2.862,3.844l-5.178,54.034a21.079,21.079,0,0,0,1.568,3.845H1709.6L1705-894.53Z" transform="translate(-1602.665 924.498)" fill="#0b1036"/>
      <path id="Path_81" data-name="Path 81" d="M1754.5-914.8h-13.8v16.754h10.271c.732,0,3.848-2.646,3.848-2.646v14.99s-3.116-2.645-3.848-2.645H1740.7v17.034h13.8c.785,0,3.848-2.645,3.848-2.645v12.344h-30.885l2.647-3.844V-919.49c0-.738-2.647-3.844-2.647-3.844h30.885v11.18S1755.287-914.8,1754.5-914.8Z" transform="translate(-1594.725 924.498)" fill="#0b1036"/>
    </g>
    <g id="Group_7" data-name="Group 7" transform="translate(0 82.241)">
      <path id="Path_82" data-name="Path 82" d="M1796.159-844.147h-13.8v16.754h10.272c.732,0,3.846-2.646,3.846-2.646v14.99s-3.115-2.645-3.846-2.645h-10.272v17.036h13.8c.786,0,3.847-2.646,3.847-2.646v12.346h-30.883l2.647-3.845v-54.036c0-.738-2.647-3.844-2.647-3.844h30.883v11.18S1796.945-844.147,1796.159-844.147Z" transform="translate(-1539.331 853.846)" fill="#0b1036"/>
      <path id="Path_83" data-name="Path 83" d="M1585.091-848.838v22.609h8.824v-22.609l-2.646-3.844h15.883l-2.647,3.844V-794.8c0,.676,2.647,3.845,2.647,3.845h-15.883s2.646-3.136,2.646-3.845V-816.53h-8.824V-794.8c0,.709,2.648,3.845,2.648,3.845h-15.883s2.647-3.136,2.647-3.845v-54.036l-2.647-3.844h15.883Z" transform="translate(-1571.856 853.846)" fill="#0b1036"/>
      <path id="Path_84" data-name="Path 84" d="M1608.813-794.8v-54.036l-2.646-3.844h15.883l-2.648,3.844V-794.8c0,.709,2.648,3.845,2.648,3.845h-15.883S1608.813-794.127,1608.813-794.8Z" transform="translate(-1566.199 853.846)" fill="#0b1036"/>
      <path id="Path_85" data-name="Path 85" d="M1638.076-799.346c5.971,0,9.07-7.536,3.962-12.64-3.385-3.383-5.787-5.782-10.265-10.257-3.728-3.724-6.961-8.915-6.961-14.4,0-10.483,5.686-17.036,15.491-17.036,6.5,0,9.585,2.95,11.344,2.95a2.4,2.4,0,0,0,2.4-1.786v23.538h-.813c0-1.5-3.678-15-12.925-15-3.235,0-4.9,2.929-4.9,6.455,0,3.822,2.856,6.579,6.961,10.68,4.875,4.871,12.844,12.576,12.844,21.145,0,9.991-5.316,16.074-15,16.074h-.391c-10.309,0-11.751-4.655-13.794-4.655-.678,0-1.207.936-1.207.936v-18.89h.819S1627.89-799.346,1638.076-799.346Z" transform="translate(-1563.125 853.682)" fill="#0b1036"/>
      <path id="Path_86" data-name="Path 86" d="M1654.891-852.682h28.237v11.18s-3.151-2.646-3.848-2.646H1674.3V-794.8c0,.717,2.646,3.845,2.646,3.845h-15.883s2.648-3.152,2.648-3.845v-49.345h-4.977c-.841,0-3.846,2.646-3.846,2.646Z" transform="translate(-1558.166 853.846)" fill="#0b1036"/>
      <path id="Path_87" data-name="Path 87" d="M1699.947-853.682c10,0,15,6.16,15,16.153v31.744c0,9.993-5,16.154-15,16.154h-.784c-10,0-15-6.161-15-16.154v-31.744c0-9.993,5-16.153,15-16.153Zm4.411,15.272c0-2.645-1.765-5.573-4.411-5.573h-.784c-2.648,0-4.413,2.929-4.413,5.573V-804.9c0,2.645,1.765,5.572,4.413,5.572h.784c2.647,0,4.411-2.928,4.411-5.572Z" transform="translate(-1553.339 853.682)" fill="#0b1036"/>
      <path id="Path_88" data-name="Path 88" d="M1731.565-853.681c9.247,0,16.765,5.98,16.765,17.353v2.645c0,9.69-5.513,11.228-5.513,11.228s5.513,1.825,5.513,11.715c0,1.392-.013,12.144-.013,12.144s.113,1.454.96,1.454c1.114,0,1.157-5.18,1.157-5.18h1.455s.8,12.693-7,12.693c-7.019,0-7.133-6.831-7.133-6.831l-.02-14.809c.069-7.257-6.372-7.389-6.372-7.389h-2.452v24.02c0,.717,2.648,3.845,2.648,3.845h-15.883s2.647-3.128,2.647-3.853v-48.207C1718.329-846.476,1720.959-853.681,1731.565-853.681Zm-2.648,12.941v13.547h2.648c4.216,0,6.176-.9,6.176-5.607v-2.081c0-4.7-1.96-7.936-6.176-7.936H1731A2.078,2.078,0,0,0,1728.917-840.741Z" transform="translate(-1548.143 853.682)" fill="#0b1036"/>
      <path id="Path_89" data-name="Path 89" d="M1753.586-794.8v-54.036c0-.746-2.648-3.844-2.648-3.844h15.884s-2.648,3.1-2.648,3.844V-794.8c0,.709,2.648,3.845,2.648,3.845h-15.884S1753.586-794.094,1753.586-794.8Z" transform="translate(-1542.33 853.846)" fill="#0b1036"/>
    </g>
  </g>
</svg>
